<svg class="diagram-root" style="background: #f5f6f6" xmlns="http://www.w3.org/2000/svg" xmlns:xlink="http://www.w3.org/1999/xlink"><style>.diagram-root { font-family: "Helvetica Neue", sans-serif; font-size: 12px; } .t { overflow: visible; } .t-bg { y: 40; fill: #fff;   } .th { fill: #005aa0;   } .tht { fill: #fff; font-size: 14px;  } .tf { fill: #323c46; overflow: visible; } .tf.pk { fill: #005aa0; font-weight: bold; } .tf.fk { font-weight: bold; } .ty { fill: #adb1b5; font-weight: normal; text-anchor: end; } .r { fill: transparent; stroke: #c3c3c3; stroke-width: 1; } .l { stroke: 1; } .i { fill: #c2c7ce; stroke: #c2c7ce; } .i.ix { fill: #afb3b6; stroke: #000; } .fa { fill: transparent; overflow: visible; } .fa .bg.hover { fill: #f7f7f7; } .c { cy: 12; r: 4; stroke: #d2d2dc; fill: #d2d2dc; } .hr { fill: transparent; stroke: #323c46; stroke-opacity: 0.035; stroke-width: 13; } .dc { stroke: #fa5a3c; fill: #fa5a3c; } .x { stroke: white; stroke-width: 1; } .hl .th { fill: #1b9bff; } .hl .tht {  } .fhl .bg { fill: #e7f4ff; } .fhls .bg {  } .r.hl { stroke: #1b9bff; } .dim { opacity: 0.25; }</style><g class="drawing-wrapper" transform="translate(-84, 10) scale(1,1)"><g class="rs"><path d="M 601.17 407 m -1, 0 a 1,1 0 1,0 2,0 a 1,1 0 1,0 -2,0 M 601.17 407 m -0.5, 0 a 0.5,0.5 0 1,0 1,0 a 0.5,0.5 0 1,0 -1,0  M601.17 407 L601.17 407 613.17 407 M 601.17 413 m -1, 0 a 1,1 0 1,0 2,0 a 1,1 0 1,0 -2,0 M 601.17 413 m -0.5, 0 a 0.5,0.5 0 1,0 1,0 a 0.5,0.5 0 1,0 -1,0  M601.17 413 L601.17 413 608.17 407 601.17 401 M 601.17 401 m -1, 0 a 1,1 0 1,0 2,0 a 1,1 0 1,0 -2,0 M 601.17 401 m -0.5, 0 a 0.5,0.5 0 1,0 1,0 a 0.5,0.5 0 1,0 -1,0  M613.17 407 C 663.17 407, 683.6719999999999 83, 579 83 M 567 83 m -1, 0 a 1,1 0 1,0 2,0 a 1,1 0 1,0 -2,0 M 567 83 m -0.5, 0 a 0.5,0.5 0 1,0 1,0 a 0.5,0.5 0 1,0 -1,0  M567 83 L567 83 579 83 M573 89 L573 89 573 77" id="h1139284389" class="r"></path><path d="M 434 432 m -1, 0 a 1,1 0 1,0 2,0 a 1,1 0 1,0 -2,0 M 434 432 m -0.5, 0 a 0.5,0.5 0 1,0 1,0 a 0.5,0.5 0 1,0 -1,0  M434 432 L434 432 422 432 M 434 438 m -1, 0 a 1,1 0 1,0 2,0 a 1,1 0 1,0 -2,0 M 434 438 m -0.5, 0 a 0.5,0.5 0 1,0 1,0 a 0.5,0.5 0 1,0 -1,0  M434 438 L434 438 427 432 434 426 M 434 426 m -1, 0 a 1,1 0 1,0 2,0 a 1,1 0 1,0 -2,0 M 434 426 m -0.5, 0 a 0.5,0.5 0 1,0 1,0 a 0.5,0.5 0 1,0 -1,0  M422 432 Q 387.79 432, 353.59 427.5 T 285.17 423 M 273.17 423 m -1, 0 a 1,1 0 1,0 2,0 a 1,1 0 1,0 -2,0 M 273.17 423 m -0.5, 0 a 0.5,0.5 0 1,0 1,0 a 0.5,0.5 0 1,0 -1,0  M273.17 423 L273.17 423 285.17 423 M279.17 429 L279.17 429 279.17 417" id="h1607168654" class="r"></path><path d="M 292.17 77 m -1, 0 a 1,1 0 1,0 2,0 a 1,1 0 1,0 -2,0 M 292.17 77 m -0.5, 0 a 0.5,0.5 0 1,0 1,0 a 0.5,0.5 0 1,0 -1,0  M292.17 77 L292.17 77 304.17 77 M 292.17 83 m -1, 0 a 1,1 0 1,0 2,0 a 1,1 0 1,0 -2,0 M 292.17 83 m -0.5, 0 a 0.5,0.5 0 1,0 1,0 a 0.5,0.5 0 1,0 -1,0  M292.17 83 L292.17 83 299.17 77 292.17 71 M 292.17 71 m -1, 0 a 1,1 0 1,0 2,0 a 1,1 0 1,0 -2,0 M 292.17 71 m -0.5, 0 a 0.5,0.5 0 1,0 1,0 a 0.5,0.5 0 1,0 -1,0  M304.17 77 Q 324.76 77, 345.34 80 T 386.5 83 M 398.5 83 m -1, 0 a 1,1 0 1,0 2,0 a 1,1 0 1,0 -2,0 M 398.5 83 m -0.5, 0 a 0.5,0.5 0 1,0 1,0 a 0.5,0.5 0 1,0 -1,0  M398.5 83 L398.5 83 386.5 83 M392.5 89 L392.5 89 392.5 77" id="h2286254435" class="r"></path><path d="M 125 102 m -1, 0 a 1,1 0 1,0 2,0 a 1,1 0 1,0 -2,0 M 125 102 m -0.5, 0 a 0.5,0.5 0 1,0 1,0 a 0.5,0.5 0 1,0 -1,0  M125 102 L125 102 113 102 M 125 108 m -1, 0 a 1,1 0 1,0 2,0 a 1,1 0 1,0 -2,0 M 125 108 m -0.5, 0 a 0.5,0.5 0 1,0 1,0 a 0.5,0.5 0 1,0 -1,0  M125 108 L125 108 118 102 125 96 M 125 96 m -1, 0 a 1,1 0 1,0 2,0 a 1,1 0 1,0 -2,0 M 125 96 m -0.5, 0 a 0.5,0.5 0 1,0 1,0 a 0.5,0.5 0 1,0 -1,0  M113 102 C 32.599999999999994 102, 44 423, 94 423 M 106 423 m -1, 0 a 1,1 0 1,0 2,0 a 1,1 0 1,0 -2,0 M 106 423 m -0.5, 0 a 0.5,0.5 0 1,0 1,0 a 0.5,0.5 0 1,0 -1,0  M106 423 L106 423 94 423 M100 429 L100 429 100 417" id="h1397587031" class="r"></path><path d="M 567 108 m -1, 0 a 1,1 0 1,0 2,0 a 1,1 0 1,0 -2,0 M 567 108 m -0.5, 0 a 0.5,0.5 0 1,0 1,0 a 0.5,0.5 0 1,0 -1,0  M567 108 L567 108 579 108 M 567 114 m -1, 0 a 1,1 0 1,0 2,0 a 1,1 0 1,0 -2,0 M 567 114 m -0.5, 0 a 0.5,0.5 0 1,0 1,0 a 0.5,0.5 0 1,0 -1,0  M567 114 L567 114 574 108 567 102 M 567 102 m -1, 0 a 1,1 0 1,0 2,0 a 1,1 0 1,0 -2,0 M 567 102 m -0.5, 0 a 0.5,0.5 0 1,0 1,0 a 0.5,0.5 0 1,0 -1,0  M579 108 Q 618.25 108, 657.5 214.5 T 736 321 M 748 321 m -1, 0 a 1,1 0 1,0 2,0 a 1,1 0 1,0 -2,0 M 748 321 m -0.5, 0 a 0.5,0.5 0 1,0 1,0 a 0.5,0.5 0 1,0 -1,0  M748 321 L748 321 736 321 M742 327 L742 327 742 315" id="h1537058300" class="r"></path><path d="M 735 107 m -1, 0 a 1,1 0 1,0 2,0 a 1,1 0 1,0 -2,0 M 735 107 m -0.5, 0 a 0.5,0.5 0 1,0 1,0 a 0.5,0.5 0 1,0 -1,0  M735 107 L735 107 723 107 M729 113 L729 113 729 101 M723 107 Q 687 107, 651 95 T 579 83 M 567 83 m -1, 0 a 1,1 0 1,0 2,0 a 1,1 0 1,0 -2,0 M 567 83 m -0.5, 0 a 0.5,0.5 0 1,0 1,0 a 0.5,0.5 0 1,0 -1,0  M567 83 L567 83 579 83 M573 89 L573 89 573 77" id="h3177548053" class="r"></path></g><g class="hrs"></g><g class="ts"><svg width="167.17" height="100" x="106" y="366" id="h475896179" class="t"><rect height="40" width="167.17" class="th"></rect><text x="13" y="25" class="tht">departments</text><rect height="60" width="167.17" class="t-bg" y="40"></rect><text x="13" y="61" class="tf pk">dept_no<tspan x="154.17" class="ty">VARCHAR</tspan></text><path d="M7,14A2,2 0 0,1 5,12A2,2 0 0,1 7,10A2,2 0 0,1 9,12A2,2 0 0,1 7,14M12.65,10C11.83,7.67 9.61,6 7, 6A6, 6 0 0, 0 1, 12A6, 6 0 0, 0 7, 18C9.61, 18 11.83, 16.33 12.65, 14H17V18H21V14H23V10H12.65Z" class="i pk" transform="translate(76.37898437499999, 48) scale(0.65)"></path><text x="13" y="86" class="tf">dept_name<tspan x="154.17" class="ty">VARCHAR</tspan></text></svg><svg width="167.17" height="100" x="434" y="350" id="h1090417462" class="t"><rect height="40" width="167.17" class="th"></rect><text x="13" y="25" class="tht">dept_emp</text><rect height="60" width="167.17" class="t-bg" y="40"></rect><text x="13" y="61" class="tf pk">emp_no<tspan x="154.17" class="ty">INT</tspan></text><path d="M7,14A2,2 0 0,1 5,12A2,2 0 0,1 7,10A2,2 0 0,1 9,12A2,2 0 0,1 7,14M12.65,10C11.83,7.67 9.61,6 7, 6A6, 6 0 0, 0 1, 12A6, 6 0 0, 0 7, 18C9.61, 18 11.83, 16.33 12.65, 14H17V18H21V14H23V10H12.65Z" class="i pk" transform="translate(114.83992187499999, 48) scale(0.65)"></path><text x="13" y="86" class="tf pk">dept_no<tspan x="154.17" class="ty">VARCHAR</tspan></text><path d="M7,14A2,2 0 0,1 5,12A2,2 0 0,1 7,10A2,2 0 0,1 9,12A2,2 0 0,1 7,14M12.65,10C11.83,7.67 9.61,6 7, 6A6, 6 0 0, 0 1, 12A6, 6 0 0, 0 7, 18C9.61, 18 11.83, 16.33 12.65, 14H17V18H21V14H23V10H12.65Z" class="i pk" transform="translate(76.37898437499999, 73) scale(0.65)"></path></svg><svg width="167.17" height="100" x="125" y="20" id="h1676682957" class="t"><rect height="40" width="167.17" class="th"></rect><text x="13" y="25" class="tht">dept_manager</text><rect height="60" width="167.17" class="t-bg" y="40"></rect><text x="13" y="61" class="tf pk">emp_no<tspan x="154.17" class="ty">INT</tspan></text><path d="M7,14A2,2 0 0,1 5,12A2,2 0 0,1 7,10A2,2 0 0,1 9,12A2,2 0 0,1 7,14M12.65,10C11.83,7.67 9.61,6 7, 6A6, 6 0 0, 0 1, 12A6, 6 0 0, 0 7, 18C9.61, 18 11.83, 16.33 12.65, 14H17V18H21V14H23V10H12.65Z" class="i pk" transform="translate(114.83992187499999, 48) scale(0.65)"></path><text x="13" y="86" class="tf pk">dept_no<tspan x="154.17" class="ty">VARCHAR</tspan></text><path d="M7,14A2,2 0 0,1 5,12A2,2 0 0,1 7,10A2,2 0 0,1 9,12A2,2 0 0,1 7,14M12.65,10C11.83,7.67 9.61,6 7, 6A6, 6 0 0, 0 1, 12A6, 6 0 0, 0 7, 18C9.61, 18 11.83, 16.33 12.65, 14H17V18H21V14H23V10H12.65Z" class="i pk" transform="translate(76.37898437499999, 73) scale(0.65)"></path></svg><svg width="168.5" height="225" x="398.5" y="26" id="h1639608377" class="t"><rect height="40" width="168.5" class="th"></rect><text x="13" y="25" class="tht">employees</text><rect height="185" width="168.5" class="t-bg" y="40"></rect><text x="13" y="61" class="tf pk">emp_no<tspan x="155.5" class="ty">INT</tspan></text><path d="M7,14A2,2 0 0,1 5,12A2,2 0 0,1 7,10A2,2 0 0,1 9,12A2,2 0 0,1 7,14M12.65,10C11.83,7.67 9.61,6 7, 6A6, 6 0 0, 0 1, 12A6, 6 0 0, 0 7, 18C9.61, 18 11.83, 16.33 12.65, 14H17V18H21V14H23V10H12.65Z" class="i pk" transform="translate(116.169921875, 48) scale(0.65)"></path><text x="13" y="86" class="tf fk">emp_title_id<tspan x="155.5" class="ty">VARCHAR</tspan></text><text x="13" y="111" class="tf">birth_date<tspan x="155.5" class="ty">DATE</tspan></text><text x="13" y="136" class="tf">first_name<tspan x="155.5" class="ty">VARCHAR</tspan></text><text x="13" y="161" class="tf">last_name<tspan x="155.5" class="ty">VARCHAR</tspan></text><text x="13" y="186" class="tf">sex<tspan x="155.5" class="ty">VARCHAR</tspan></text><text x="13" y="211" class="tf">hire_date<tspan x="155.5" class="ty">DATE</tspan></text></svg><svg width="128.7" height="100" x="735" y="50" id="h2472833127" class="t"><rect height="40" width="128.7" class="th"></rect><text x="13" y="25" class="tht">salaries</text><rect height="60" width="128.7" class="t-bg" y="40"></rect><text x="13" y="61" class="tf pk">emp_no<tspan x="115.69999999999999" class="ty">INT</tspan></text><path d="M7,14A2,2 0 0,1 5,12A2,2 0 0,1 7,10A2,2 0 0,1 9,12A2,2 0 0,1 7,14M12.65,10C11.83,7.67 9.61,6 7, 6A6, 6 0 0, 0 1, 12A6, 6 0 0, 0 7, 18C9.61, 18 11.83, 16.33 12.65, 14H17V18H21V14H23V10H12.65Z" class="i pk" transform="translate(76.36992187499999, 48) scale(0.65)"></path><text x="13" y="86" class="tf">salary<tspan x="115.69999999999999" class="ty">INT</tspan></text></svg><svg width="158.48" height="100" x="748" y="264" id="h311790747" class="t"><rect height="40" width="158.48" class="th"></rect><text x="13" y="25" class="tht">titles</text><rect height="60" width="158.48" class="t-bg" y="40"></rect><text x="13" y="61" class="tf pk">title_id<tspan x="145.48" class="ty">VARCHAR</tspan></text><path d="M7,14A2,2 0 0,1 5,12A2,2 0 0,1 7,10A2,2 0 0,1 9,12A2,2 0 0,1 7,14M12.65,10C11.83,7.67 9.61,6 7, 6A6, 6 0 0, 0 1, 12A6, 6 0 0, 0 7, 18C9.61, 18 11.83, 16.33 12.65, 14H17V18H21V14H23V10H12.65Z" class="i pk" transform="translate(67.68898437499999, 48) scale(0.65)"></path><text x="13" y="86" class="tf">title<tspan x="145.48" class="ty">VARCHAR</tspan></text></svg></g></g><text class="qdbd-link" x="10" y="20">www.quickdatabasediagrams.com</text></svg>